<svg xmlns="http://www.w3.org/2000/svg" xmlns:xlink="http://www.w3.org/1999/xlink" id="Calque_1" x="0px" y="0px" viewBox="0 0 240.1 38.2" style="enable-background:new 0 0 240.1 38.2;" xml:space="preserve">
<style type="text/css">
	.st0{fill:#FF4100;}
	.st1{fill:#3B3B3C;}
	.st2{fill:#1D71B8;}
</style>
<g>
	<path class="st0" d="M230.6,28.6L230.6,28.6c-5.2,0-9.5-4.3-9.5-9.5v0c0-5.2,4.3-9.5,9.5-9.5h0c5.2,0,9.5,4.3,9.5,9.5v0   C240.1,24.3,235.9,28.6,230.6,28.6z"></path>
</g>
<path class="st1" d="M5.8,11.8H0.7c-0.4,0-0.7-0.3-0.7-0.7V7.2c0-0.4,0.3-0.7,0.7-0.7h16c0.4,0,0.7,0.3,0.7,0.7v3.9  c0,0.4-0.3,0.7-0.7,0.7h-5.1V31c0,0.4-0.3,0.7-0.7,0.7H6.5c-0.4,0-0.7-0.3-0.7-0.7V11.8z"></path>
<path class="st1" d="M25.3,18v-0.1l-0.7-0.8c-1.4-1.5-2.4-3.1-2.4-5.1c0-2.7,2.4-5.8,7-5.8c4.1,0,7.2,2.7,7.2,6c0,4-3.9,6.1-3.9,6.4  l3.2,3.3c0.5-0.8,0.9-1.9,1.2-2.8c0.2-0.8,0.4-1.3,1.4-1l2.6,0.9c1,0.4,0.6,1.2,0.5,1.7c-0.9,2.5-2.3,4.4-2.3,4.5l3.1,2.8  c0.5,0.4,0.8,0.8-0.1,1.7l-2,2.1c-0.4,0.4-1,0.5-1.6-0.1l-2.3-2.3c0,0-2.4,2.8-7.8,2.8c-4.6,0-7.9-3.1-7.9-6.8  C20.4,20,25.3,18,25.3,18z M28.9,27.5c2.8,0,3.9-1.8,3.9-1.8l-4.7-5c0,0-2.6,0.9-2.6,3.8C25.5,26.2,27,27.5,28.9,27.5z M31.8,12.5  c0-1.2-1.1-2.3-2.7-2.3c-1.3,0-2.1,0.8-2.1,1.8c0,1.1,0.7,1.8,1.7,2.8l0.8,0.8C29.4,15.5,31.8,14.5,31.8,12.5z"></path>
<path class="st1" d="M44.7,28.3l1.7-3c0.3-0.5,1-0.4,1.2-0.2c0.1,0.1,2.7,2,5.1,2c1.4,0,2.5-0.9,2.5-2.2c0-1.5-1.3-2.7-3.7-3.6  c-3.1-1.2-7-3.6-7-8c0-3.6,2.8-7.2,8.3-7.2c3.7,0,6.6,1.9,7.7,2.7c0.4,0.3,0.4,0.9,0.2,1.2l-1.8,2.8c-0.3,0.4-0.9,0.7-1.2,0.5  c-0.3-0.2-3-2.2-5.1-2.2c-1.3,0-2.3,0.9-2.3,1.8c0,1.3,1.1,2.3,3.9,3.5c2.8,1.1,7.3,3.3,7.3,8.2c0,3.7-3.2,7.5-8.5,7.5  c-4.7,0-7.3-1.9-8.1-2.8C44.5,28.9,44.4,28.8,44.7,28.3z"></path>
<path class="st1" d="M72.9,0.7c0-0.4,0.3-0.7,0.7-0.7h0.6c0.4,0,0.6,0.3,0.6,0.7v36.8c0,0.4-0.3,0.6-0.7,0.6h-0.6  c-0.4,0-0.7-0.3-0.7-0.6V0.7z"></path>
<g>
	<path class="st1" d="M88.1,15.4h-2.6c-0.2,0-0.3-0.2-0.3-0.3v-2c0-0.2,0.1-0.3,0.3-0.3h8c0.2,0,0.3,0.2,0.3,0.3v2   c0,0.2-0.1,0.3-0.3,0.3h-2.6V25c0,0.2-0.2,0.3-0.3,0.3h-2.2c-0.2,0-0.3-0.2-0.3-0.3V15.4z"></path>
	<path class="st1" d="M101.1,12.6c3.6,0,6.5,2.9,6.5,6.5c0,3.6-2.9,6.5-6.5,6.5s-6.5-2.9-6.5-6.5C94.7,15.5,97.5,12.6,101.1,12.6z    M101.1,22.7c2,0,3.6-1.6,3.6-3.6c0-2-1.6-3.6-3.6-3.6c-2,0-3.6,1.6-3.6,3.6C97.5,21.1,99.2,22.7,101.1,22.7z"></path>
	<path class="st1" d="M109.6,13.1c0-0.2,0.2-0.3,0.3-0.3h2.2c0.2,0,0.3,0.2,0.3,0.3v7.3c0,1.3,0.9,2.3,2.2,2.3c1.3,0,2.2-1,2.2-2.3   v-7.3c0-0.2,0.1-0.3,0.3-0.3h2.2c0.2,0,0.3,0.2,0.3,0.3v7.4c0,2.7-2.3,5-5.1,5c-2.8,0-5.1-2.3-5.1-5V13.1z"></path>
	<path class="st1" d="M128.3,12.6c1.8,0,3.1,0.6,4.4,1.7c0.2,0.1,0.2,0.4,0,0.5l-1.4,1.5c-0.1,0.1-0.3,0.1-0.5,0   c-0.7-0.6-1.5-0.9-2.4-0.9c-2,0-3.5,1.7-3.5,3.7c0,2,1.5,3.7,3.5,3.7c0.8,0,1.8-0.3,2.4-0.9c0.1-0.1,0.4-0.1,0.5,0l1.4,1.5   c0.1,0.1,0.1,0.4,0,0.5c-1.2,1.2-2.8,1.7-4.4,1.7c-3.6,0-6.5-2.9-6.5-6.5C121.8,15.5,124.7,12.6,128.3,12.6z"></path>
	<path class="st1" d="M134.9,13.1c0-0.2,0.2-0.3,0.3-0.3h2.1c0.2,0,0.3,0.2,0.3,0.3v4.5h5.1v-4.5c0-0.2,0.1-0.3,0.3-0.3h2.1   c0.2,0,0.3,0.2,0.3,0.3V25c0,0.2-0.2,0.3-0.3,0.3h-2.1c-0.2,0-0.3-0.2-0.3-0.3v-4.7h-5.1V25c0,0.2-0.1,0.3-0.3,0.3h-2.1   c-0.2,0-0.3-0.2-0.3-0.3V13.1z"></path>
	<path class="st1" d="M154.9,18.5L154.9,18.5l-0.4-0.4c-0.7-0.8-1.2-1.5-1.2-2.6c0-1.4,1.2-2.9,3.5-2.9c2.1,0,3.6,1.3,3.6,3   c0,2-2,3-2,3.2l1.6,1.7c0.2-0.4,0.5-1,0.6-1.4c0.1-0.4,0.2-0.7,0.7-0.5l1.3,0.5c0.5,0.2,0.3,0.6,0.2,0.8c-0.4,1.3-1.1,2.2-1.1,2.3   l1.5,1.4c0.2,0.2,0.4,0.4,0,0.8l-1,1c-0.2,0.2-0.5,0.2-0.8-0.1l-1.2-1.2c0,0-1.2,1.4-3.9,1.4c-2.3,0-4-1.5-4-3.4   C152.5,19.5,154.9,18.5,154.9,18.5z M156.7,23.3c1.4,0,1.9-0.9,1.9-0.9l-2.4-2.5c0,0-1.3,0.4-1.3,1.9   C155,22.6,155.8,23.3,156.7,23.3z M158.2,15.8c0-0.6-0.6-1.2-1.3-1.2c-0.7,0-1.1,0.4-1.1,0.9c0,0.5,0.4,0.9,0.8,1.4l0.4,0.4   C157,17.3,158.2,16.8,158.2,15.8z"></path>
	<path class="st1" d="M168.6,23.7l0.8-1.5c0.1-0.2,0.5-0.2,0.6-0.1c0.1,0,1.4,1,2.6,1c0.7,0,1.2-0.5,1.2-1.1c0-0.8-0.6-1.3-1.9-1.8   c-1.5-0.6-3.5-1.8-3.5-4c0-1.8,1.4-3.6,4.2-3.6c1.9,0,3.3,1,3.9,1.4c0.2,0.1,0.2,0.5,0.1,0.6l-0.9,1.4c-0.1,0.2-0.5,0.4-0.6,0.2   c-0.2-0.1-1.5-1.1-2.6-1.1c-0.6,0-1.1,0.4-1.1,0.9c0,0.7,0.5,1.2,2,1.7c1.4,0.6,3.6,1.7,3.6,4.1c0,1.9-1.6,3.7-4.2,3.7   c-2.3,0-3.6-1-4.1-1.4C168.5,24,168.4,23.9,168.6,23.7z"></path>
	<path class="st1" d="M179.2,13.1c0-0.2,0.1-0.3,0.3-0.3h7.5c0.2,0,0.3,0.2,0.3,0.3v2c0,0.2-0.1,0.3-0.3,0.3h-5v2.2h4.1   c0.2,0,0.3,0.2,0.3,0.3v2c0,0.2-0.2,0.3-0.3,0.3H182v2.4h5c0.2,0,0.3,0.2,0.3,0.3v2c0,0.2-0.1,0.3-0.3,0.3h-7.5   c-0.2,0-0.3-0.2-0.3-0.3V13.1z"></path>
	<path class="st1" d="M189.7,13.1c0-0.2,0.1-0.3,0.3-0.3h2.1c0.2,0,0.3,0.2,0.3,0.3v9.6h4.3c0.2,0,0.3,0.2,0.3,0.3v2   c0,0.2-0.1,0.3-0.3,0.3h-6.8c-0.2,0-0.3-0.2-0.3-0.3V13.1z"></path>
	<path class="st1" d="M198.9,13.1c0-0.2,0.1-0.3,0.3-0.3h2.1c0.2,0,0.3,0.2,0.3,0.3v9.6h4.3c0.2,0,0.3,0.2,0.3,0.3v2   c0,0.2-0.1,0.3-0.3,0.3h-6.8c-0.2,0-0.3-0.2-0.3-0.3V13.1z"></path>
</g>
</svg>